<?xml version="1.0" encoding="utf-8"?>
<!-- Generator: Adobe Illustrator 25.4.1, SVG Export Plug-In . SVG Version: 6.00 Build 0)  -->
<svg version="1.1" id="Layer_1" xmlns="http://www.w3.org/2000/svg" xmlns:xlink="http://www.w3.org/1999/xlink" x="0px" y="0px"
	 viewBox="0 0 824 258" style="enable-background:new 0 0 824 258;" xml:space="preserve">
<style type="text/css">
	.st0{fill:#844F1F;}
	.st1{fill:#BF8852;}
	.st2{fill:#FFFFFF;}
	.st3{fill:#4C3232;}
</style>
<g id="Layer_2_00000050651018067663554340000004455042407077252488_">
	<g id="Layer_1-2">
		<path class="st0" d="M131.1,227.2c34.6,0,69,0,103.1,0c0-0.2,0-0.4,0-0.6c-0.4-10.1-0.5-20.5,0-30.9c-44,0-88-0.1-132.1-0.4
			c-38.2-0.2-53.9-16.8-54.7-55c-0.3-15.2,0-30.5,0-47c-12,0-22.2-0.8-32.3,0.2C1.9,95.1-5.4,111.2,4.8,117.9
			c12.8,8.4,10.8,19.3,11.5,30.5c2.8,47.2,29.2,74.4,76.4,78.2c6.2,0.5,12.5,0.8,19.8,1.3"/>
		<path class="st1" d="M229.7,187.1c-45.8,0-89.4,0.5-132.9-0.2c-22.1-0.4-38.8-18-39.9-41c-0.8-15.3-0.7-30.8,0-46.1
			c0.7-18.7,12.6-30.2,31.6-30.4c37.4-0.4,74.8-0.4,112.3,0c16.2,0.2,28.2,9.6,28.6,24.2C230.4,124.2,229.7,154.8,229.7,187.1z"/>
		<rect x="228.9" y="43.7" class="st0" width="5.4" height="183.5"/>
		<polygon class="st1" points="213.4,0 251.1,0 266.8,43.7 195.6,43.7 		"/>
		<polygon class="st2" points="218.1,5.5 202.9,38 212.9,38 		"/>
		<circle class="st3" cx="220.1" cy="45.7" r="1.1"/>
		<circle class="st3" cx="220.1" cy="48.4" r="1.1"/>
		<circle class="st3" cx="220.1" cy="51.2" r="1.1"/>
		<circle class="st3" cx="220.1" cy="53.8" r="1.1"/>
		<circle class="st3" cx="220.1" cy="56.6" r="1.1"/>
		<circle class="st3" cx="220.1" cy="59.3" r="1.1"/>
		<circle class="st3" cx="220.1" cy="62" r="1.1"/>
		<circle class="st3" cx="220.1" cy="66" r="2.5"/>
		<polygon class="st0" points="86.9,226 77.1,258 108.8,258 113.8,227.9 		"/>
		<path d="M284,185.9v2.5h-13.3v11.3h11.2v2.5h-11.2v14h-3v-30.3H284z"/>
		<path d="M334.9,185.9v19c0,3,0.7,5.2,2.1,6.7c1.6,1.5,3.7,2.3,5.8,2.2c2.1,0.1,4.2-0.6,5.8-2.1c1.4-1.4,2.1-3.6,2.1-6.7v-19h3v19
			c0,3.8-1,6.7-3,8.7c-4.6,3.9-11.2,3.9-15.8,0c-2-1.9-3-4.8-3-8.7v-19H334.9z"/>
		<path d="M419.5,216.1l-7.5-12.6h-5.5v12.6h-3v-30.2h9c3.4,0,5.9,0.8,7.6,2.4c1.7,1.6,2.7,4,2.6,6.4c0.1,2-0.6,4-1.9,5.6
			c-1.4,1.6-3.4,2.7-5.5,3l7.7,12.8H419.5z M406.5,201h6.1c2.4,0,4.1-0.6,5.3-1.7c1.2-1.2,1.9-2.9,1.8-4.6c0.1-1.7-0.5-3.4-1.7-4.6
			c-1.2-1.1-3-1.6-5.4-1.6h-6V201z"/>
		<path d="M494.5,216.1h-3l-16.6-25.4v25.4h-3v-30.2h3l16.7,25.4v-25.4h3L494.5,216.1z"/>
		<path d="M547.4,185.9v30.2h-3v-30.2H547.4z"/>
		<path d="M614.9,185.9v2.5h-8.3v27.7h-3v-27.7h-8.4v-2.5L614.9,185.9z"/>
		<path d="M665.7,185.9v19c0,3,0.7,5.2,2.1,6.7c1.6,1.5,3.7,2.3,5.8,2.2c2.1,0.1,4.2-0.6,5.8-2.1c1.4-1.4,2.1-3.7,2.1-6.7v-19h3v19
			c0,3.8-1,6.7-3,8.7c-4.6,3.9-11.2,3.9-15.8,0c-2-1.9-3-4.8-3-8.7v-19H665.7z"/>
		<path d="M750.3,216.1l-7.4-12.6h-5.6v12.6h-3v-30.2h9c3.4,0,5.9,0.8,7.6,2.4c1.7,1.6,2.7,4,2.6,6.4c0.1,2-0.6,4-1.9,5.6
			c-1.4,1.6-3.4,2.7-5.5,3l7.8,12.8H750.3z M737.2,201h6.1c2.4,0,4.1-0.6,5.3-1.7c1.2-1.2,1.8-2.9,1.7-4.6c0.1-1.7-0.5-3.4-1.7-4.6
			c-1.2-1.1-3-1.6-5.4-1.6h-6L737.2,201z"/>
		<path d="M805.6,188.3v11.3H817v2.5h-11.4v11.5h12.7v2.5h-15.7v-30.3h15.7v2.5H805.6z"/>
		<path d="M261.4,117.6v-0.2c0-24.6,18.9-43.8,44.5-43.8c17.2,0,28.3,7.2,35.8,17.6L324,104.7c-4.8-6-10.4-9.9-18.4-9.9
			c-11.8,0-20.1,10-20.1,22.3v0.2c0,12.7,8.3,22.5,20.1,22.5c8.8,0,14-4.1,19-10.2l17.6,12.5c-8,11-18.7,19-37.4,19
			C280.8,161.2,261.4,142.8,261.4,117.6z"/>
		<path d="M352.2,75.2h23.4v31.6h30V75.2H429v84.3h-23.4v-32h-30v32h-23.4V75.2z"/>
		<path d="M444.4,75.2h23.5v84.3h-23.5V75.2z"/>
		<path d="M483.3,75.2h21.8l34.7,44.6V75.2h23.1v84.3h-20.5l-36-46.3v46.3h-23.1V75.2z"/>
		<path d="M578.3,75.2h23.5v84.3h-23.5V75.2z"/>
		<path d="M614.4,117.6v-0.2c0-24.2,19.5-43.8,45.5-43.8s45.3,19.4,45.3,43.6v0.2c0,24.2-19.5,43.8-45.5,43.8
			S614.4,141.8,614.4,117.6z M681.4,117.6v-0.2c0-12.2-8.8-22.8-21.7-22.8s-21.3,10.4-21.3,22.5v0.2c0,12.2,8.8,22.8,21.6,22.8
			S681.3,129.8,681.4,117.6L681.4,117.6z"/>
		<path d="M734.3,95.7H709V75.2h74v20.5h-25.3v63.8h-23.4V95.7z"/>
		<path d="M793.7,75.2h23.5v84.3h-23.5V75.2z"/>
	</g>
</g>
</svg>
